<?xml version="1.0" encoding="utf-8"?>
<!-- Generator: Adobe Illustrator 15.0.0, SVG Export Plug-In . SVG Version: 6.00 Build 0)  -->
<!DOCTYPE svg PUBLIC "-//W3C//DTD SVG 1.1//EN" "http://www.w3.org/Graphics/SVG/1.1/DTD/svg11.dtd">
<svg version="1.1" id="Layer_1" xmlns="http://www.w3.org/2000/svg" xmlns:xlink="http://www.w3.org/1999/xlink" x="0px" y="0px"
	 width="2105.504px" height="1518.52px" viewBox="0 0 2105.504 1518.52" enable-background="new 0 0 2105.504 1518.52"
	 xml:space="preserve">
<title>XT_Cube_005.123dx</title>
<desc>made with 123D Design</desc>
<path fill="none" stroke="#0000FF" stroke-width="0.1417" d="M594.972,563.576l-0.12-0.031l-0.561-0.264l-0.11-0.051l-0.506-0.354
	l-0.103-0.071l-0.437-0.437l-0.088-0.088l-0.354-0.504l-0.07-0.104l-0.261-0.559l-0.053-0.113l-0.159-0.595l-0.032-0.122
	l-0.054-0.615l-0.012-0.122l0.055-0.615l0.011-0.122l0.159-0.598l0.032-0.119l0.262-0.559l0.052-0.113l0.354-0.505l0.07-0.103
	l0.437-0.437l0.088-0.088l0.506-0.354l0.103-0.07l0.56-0.262l0.111-0.054l0.597-0.158l0.12-0.031l0.615-0.054l0.122-0.012
	l0.616,0.054l0.123,0.012l0.597,0.158l0.119,0.031l0.56,0.264l0.112,0.052l0.506,0.354l0.101,0.071l0.438,0.437l0.087,0.088
	l0.354,0.506l0.07,0.102l0.262,0.559l0.053,0.113l0.16,0.596l0.031,0.121l0.055,0.615l0.011,0.122l-0.055,0.615l-0.011,0.122
	l-0.16,0.598l-0.031,0.119l-0.262,0.562l-0.053,0.11l-0.354,0.508l-0.071,0.1l-0.437,0.437l-0.089,0.088l-0.506,0.354l-0.101,0.07
	l-0.561,0.262l-0.111,0.054l-0.598,0.158l-0.118,0.031l-0.615,0.054l-0.124,0.012l-0.614-0.054l-0.123-0.012L594.972,563.576z
	 M560.075,1423.78l-0.094-0.095l-0.466-0.465l-0.107-0.076l-0.54-0.377l-0.118-0.058l-0.599-0.276l-0.127-0.033l-0.637-0.171
	l-0.131-0.012l-0.656-0.057l-0.131,0.011l-0.657,0.058l-0.127,0.034l-0.637,0.17l-0.119,0.057l-0.598,0.278l-0.107,0.075
	l-0.539,0.377l-0.094,0.095l-0.467,0.465l-0.074,0.108l-0.378,0.541l-0.057,0.118l-0.277,0.596l-0.034,0.128l-0.171,0.638
	l-0.013,0.13l-0.057,0.658l0.011,0.131l0.059,0.654l0.033,0.127l0.171,0.639l0.057,0.119l0.278,0.598l0.074,0.107l0.378,0.539
	l0.095,0.094l0.466,0.465l0.106,0.076l0.54,0.377l0.119,0.057l0.598,0.277l0.128,0.035l0.636,0.17l0.132,0.011l0.656,0.061
	l0.131-0.015l0.656-0.057l0.128-0.034l0.636-0.171l0.12-0.057l0.597-0.277l0.108-0.076l0.539-0.377l0.094-0.094l0.466-0.465
	l0.075-0.107l0.378-0.539l0.056-0.121l0.278-0.596l0.034-0.128l0.171-0.638l0.011-0.131l0.059-0.654l-0.013-0.133l-0.057-0.655
	l-0.034-0.128l-0.171-0.638l-0.056-0.118l-0.278-0.596l-0.075-0.111L560.075,1423.78z M143.317,504.964l-0.119,0.058l-0.598,0.277
	l-0.107,0.076l-0.538,0.377l-0.095,0.094l-0.465,0.465l-0.076,0.107l-0.377,0.539l-0.057,0.121l-0.278,0.596l-0.034,0.128
	l-0.17,0.639l-0.012,0.13l-0.059,0.654l0.014,0.134l0.057,0.654l0.034,0.127l0.17,0.639l0.058,0.119l0.277,0.596l0.076,0.109
	l0.377,0.539l0.094,0.094l0.466,0.465l0.106,0.077l0.539,0.377l0.121,0.057l0.596,0.277l0.128,0.034l0.639,0.17l0.13,0.012
	l0.655,0.057l0.133-0.011l0.654-0.058l0.128-0.033l0.638-0.171l0.119-0.058l0.596-0.276l0.11-0.076l0.539-0.378l0.093-0.093
	l0.465-0.466l0.077-0.107l0.377-0.541l0.057-0.119l0.277-0.596l0.034-0.127l0.17-0.639l0.012-0.131l0.057-0.657l-0.012-0.131
	l-0.057-0.653l-0.033-0.128l-0.171-0.639l-0.058-0.119l-0.276-0.598l-0.077-0.108l-0.377-0.537l-0.093-0.095l-0.465-0.465
	l-0.108-0.076l-0.541-0.377l-0.119-0.057l-0.596-0.278l-0.127-0.034l-0.639-0.17l-0.131-0.011l-0.656-0.06l-0.132,0.014
	l-0.653,0.057l-0.128,0.034L143.317,504.964z M552.122,415.488l0.013-0.13l0.171-0.638l0.034-0.128l0.277-0.596l0.057-0.119
	l0.378-0.541l0.075-0.107l0.466-0.465l0.094-0.094l0.539-0.377l0.108-0.077l0.597-0.277l0.119-0.057l0.637-0.17l0.127-0.034
	l0.657-0.057l0.131-0.012l0.656,0.057l0.131,0.012l0.637,0.17l0.127,0.034l0.599,0.277l0.118,0.057l0.54,0.377l0.107,0.077
	l0.466,0.465l0.094,0.094l0.379,0.538l0.074,0.11l0.278,0.596l0.056,0.119l0.172,0.638l0.033,0.128l0.058,0.654l0.012,0.134
	l-0.058,0.654l-0.012,0.131l-0.171,0.638l-0.034,0.127l-0.277,0.596l-0.057,0.122l-0.378,0.538l-0.075,0.108l-0.466,0.465
	l-0.094,0.093l-0.539,0.377l-0.107,0.077l-0.598,0.277l-0.12,0.057l-0.636,0.17l-0.128,0.034l-0.656,0.057l-0.131,0.015l-0.656-0.06
	l-0.132-0.012l-0.636-0.17l-0.128-0.034l-0.597-0.277l-0.119-0.057l-0.54-0.377l-0.107-0.077l-0.466-0.465l-0.094-0.093
	l-0.378-0.539l-0.075-0.107l-0.278-0.599l-0.056-0.119l-0.171-0.638l-0.034-0.127l-0.058-0.655l-0.012-0.13L552.122,415.488z
	 M1544.15,511.492l0.058-0.119l0.277-0.596l0.034-0.127l0.17-0.639l0.012-0.131l0.058-0.657l-0.012-0.131l-0.058-0.653l-0.033-0.129
	l-0.171-0.638l-0.057-0.119l-0.278-0.598l-0.076-0.108l-0.377-0.538l-0.094-0.094l-0.465-0.465l-0.107-0.076l-0.541-0.377
	l-0.118-0.057l-0.597-0.278l-0.127-0.034l-0.639-0.17l-0.13-0.011l-0.657-0.061l-0.131,0.015l-0.654,0.057l-0.128,0.034l-0.638,0.17
	l-0.119,0.057l-0.599,0.278l-0.107,0.076l-0.538,0.377l-0.094,0.094l-0.465,0.465l-0.076,0.107l-0.378,0.539l-0.058,0.121
	l-0.276,0.596l-0.034,0.128l-0.17,0.639l-0.013,0.13l-0.06,0.654l0.015,0.134l0.058,0.654l0.032,0.127l0.172,0.639l0.057,0.119
	l0.277,0.596l0.076,0.109l0.377,0.539l0.095,0.094l0.465,0.465l0.106,0.077l0.539,0.377l0.121,0.057l0.596,0.277l0.127,0.034
	l0.64,0.17l0.13,0.012l0.655,0.057l0.133-0.011l0.654-0.058l0.128-0.033l0.638-0.171l0.119-0.058l0.596-0.276l0.11-0.076
	l0.538-0.378l0.094-0.093l0.465-0.466l0.076-0.107L1544.15,511.492z M1537.954,1006.784l-0.107,0.075l-0.538,0.378l-0.094,0.093
	l-0.465,0.466l-0.076,0.108l-0.379,0.539l-0.057,0.119l-0.277,0.598l-0.033,0.128l-0.17,0.636l-0.013,0.132l-0.06,0.656l0.015,0.131
	l0.058,0.656l0.032,0.128l0.171,0.636l0.058,0.119l0.276,0.599l0.077,0.106l0.377,0.54l0.095,0.093l0.465,0.466l0.106,0.076
	l0.539,0.378l0.121,0.057l0.596,0.277l0.127,0.034l0.64,0.17l0.13,0.013l0.655,0.058l0.133-0.012l0.654-0.059l0.128-0.034
	l0.638-0.17l0.119-0.056l0.596-0.278l0.11-0.075l0.538-0.379l0.094-0.093l0.465-0.466l0.076-0.108l0.377-0.538l0.057-0.119
	l0.278-0.599l0.034-0.127l0.17-0.637l0.012-0.131l0.057-0.656l-0.012-0.132l-0.057-0.656l-0.033-0.127l-0.171-0.637l-0.058-0.119
	l-0.277-0.599l-0.076-0.106l-0.377-0.54l-0.094-0.093l-0.465-0.467l-0.107-0.074l-0.541-0.378l-0.119-0.058l-0.596-0.277
	l-0.127-0.033l-0.639-0.171l-0.131-0.013l-0.656-0.058l-0.131,0.012l-0.654,0.059l-0.128,0.033l-0.639,0.171l-0.118,0.057
	L1537.954,1006.784z M1116.375,512.142l0.075-0.107l0.377-0.541l0.058-0.119l0.277-0.596l0.033-0.127l0.171-0.639l0.011-0.131
	l0.058-0.657l-0.011-0.131l-0.058-0.653l-0.034-0.128l-0.17-0.639l-0.057-0.119l-0.278-0.598l-0.076-0.108l-0.377-0.537
	l-0.094-0.095l-0.465-0.465l-0.108-0.076l-0.541-0.377l-0.119-0.057l-0.595-0.278l-0.128-0.034l-0.638-0.17l-0.131-0.011
	l-0.657-0.06l-0.131,0.014l-0.654,0.057l-0.128,0.034l-0.638,0.17l-0.119,0.058l-0.598,0.277l-0.107,0.076l-0.539,0.377
	l-0.094,0.094l-0.465,0.466l-0.076,0.106l-0.377,0.539l-0.058,0.121l-0.277,0.596l-0.034,0.128l-0.17,0.639l-0.012,0.13l-0.06,0.654
	l0.014,0.134l0.058,0.654l0.034,0.127l0.17,0.639l0.057,0.119l0.278,0.596l0.076,0.11l0.377,0.539l0.094,0.093l0.465,0.465
	l0.107,0.077l0.539,0.377l0.121,0.057l0.596,0.277l0.128,0.034l0.638,0.17l0.13,0.012l0.655,0.057l0.133-0.011l0.655-0.058
	l0.128-0.033l0.638-0.171l0.118-0.057l0.596-0.277l0.11-0.076l0.539-0.378l0.094-0.093L1116.375,512.142z M1284.086,690.88
	l-0.167-0.119l-0.934-0.437l-0.188-0.085l-0.994-0.268l-0.199-0.054l-1.024-0.091l-0.204-0.018l-1.026,0.091l-0.204,0.018
	l-0.995,0.267l-0.197,0.055l-0.934,0.434l-0.188,0.088l-0.843,0.59l-0.17,0.119l-0.729,0.729l-0.146,0.145l-0.59,0.846l-0.119,0.167
	l-0.436,0.933l-0.086,0.188l-0.267,0.994l-0.055,0.199l-0.09,1.025l-0.019,0.204v106.3v21.26l0.092,1.025l0.017,0.205l0.268,0.993
	l0.054,0.199l0.434,0.934l0.088,0.187l0.59,0.844l0.119,0.168l0.729,0.729l0.146,0.146l0.846,0.591l0.166,0.117l0.935,0.437
	l0.187,0.087l0.995,0.267l0.198,0.054l1.025,0.09l0.204,0.019l1.026-0.091l0.203-0.018l0.996-0.268l0.196-0.053l0.935-0.436
	l0.187-0.088l0.844-0.59l0.17-0.118l0.729-0.729l0.146-0.146l0.589-0.843l0.119-0.169l0.437-0.933l0.085-0.188l0.268-0.994
	l0.055-0.198l0.09-1.025l0.018-0.205v-106.3v-21.261l-0.092-1.024l-0.016-0.204l-0.269-0.995l-0.054-0.198l-0.434-0.933
	l-0.088-0.188l-0.59-0.842l-0.118-0.17l-0.729-0.729l-0.145-0.146L1284.086,690.88z M555.813,1015.178l-0.636-0.17l-0.128-0.034
	l-0.598-0.277l-0.119-0.057l-0.539-0.378l-0.107-0.076l-0.466-0.466l-0.094-0.093l-0.378-0.54l-0.075-0.106l-0.278-0.599
	l-0.056-0.119l-0.171-0.636l-0.034-0.128l-0.059-0.656l-0.011-0.131l0.057-0.656l0.013-0.132l0.171-0.636l0.034-0.128l0.277-0.598
	l0.057-0.119l0.378-0.539l0.075-0.108l0.466-0.466l0.094-0.093l0.539-0.378l0.108-0.075l0.597-0.278l0.119-0.057l0.637-0.17
	l0.127-0.034l0.657-0.058l0.131-0.013l0.656,0.059l0.131,0.012l0.637,0.171l0.127,0.033l0.599,0.277l0.119,0.058l0.539,0.378
	l0.107,0.075l0.466,0.466l0.094,0.093l0.378,0.54l0.075,0.107l0.278,0.598l0.056,0.119l0.171,0.637l0.034,0.127l0.058,0.656
	l0.012,0.132l-0.058,0.656l-0.012,0.131l-0.171,0.637l-0.034,0.128l-0.277,0.598l-0.057,0.119l-0.378,0.539l-0.074,0.107
	l-0.467,0.466l-0.094,0.094l-0.539,0.378l-0.107,0.076l-0.598,0.277l-0.12,0.057l-0.636,0.17l-0.128,0.033l-0.656,0.059
	l-0.131,0.012l-0.656-0.058L555.813,1015.178z M1202.236,690.88l-0.168-0.119l-0.932-0.437l-0.188-0.085l-0.995-0.268l-0.197-0.054
	l-1.026-0.091l-0.204-0.018l-1.024,0.091l-0.205,0.018l-0.994,0.267l-0.199,0.055l-0.932,0.434l-0.188,0.088l-0.842,0.59
	l-0.17,0.119l-0.729,0.729l-0.145,0.145l-0.59,0.846l-0.119,0.167l-0.438,0.933l-0.085,0.188l-0.267,0.994l-0.054,0.199
	l-0.091,1.025l-0.018,0.204v106.3v21.26l0.09,1.025l0.019,0.205l0.266,0.993l0.055,0.199l0.435,0.934l0.088,0.187l0.59,0.844
	l0.119,0.168l0.729,0.729l0.146,0.146l0.844,0.591l0.168,0.117l0.933,0.437l0.188,0.087l0.995,0.267l0.198,0.054l1.025,0.09
	l0.204,0.019l1.026-0.091l0.204-0.018l0.993-0.268l0.199-0.053l0.934-0.436l0.187-0.088l0.842-0.59l0.171-0.118l0.729-0.729
	l0.145-0.146l0.591-0.843l0.118-0.169l0.438-0.933l0.084-0.188l0.268-0.994l0.054-0.198l0.092-1.025l0.017-0.205v-106.3v-21.261
	l-0.091-1.024l-0.018-0.204l-0.267-0.995l-0.055-0.198l-0.434-0.933l-0.089-0.188l-0.59-0.842l-0.119-0.17l-0.728-0.729
	l-0.146-0.146L1202.236,690.88z M880.28,920.371l-0.162-0.597l-0.03-0.119l-0.055-0.615l-0.012-0.123l0.055-0.616l0.012-0.123
	l0.158-0.596l0.034-0.119l0.261-0.561l0.052-0.111l0.354-0.507l0.07-0.102l0.437-0.437l0.089-0.088l0.505-0.354l0.102-0.069
	l0.562-0.262l0.109-0.053l0.6-0.159l0.118-0.032l0.615-0.054l0.121-0.011l0.615,0.054l0.125,0.011l0.596,0.159l0.118,0.032
	l0.562,0.261l0.11,0.054l0.508,0.354l0.101,0.07l0.437,0.437l0.088,0.088l0.354,0.506l0.07,0.103l0.262,0.56l0.054,0.112
	l0.159,0.596l0.031,0.119l0.054,0.616l0.011,0.123l-0.054,0.615l-0.011,0.123l-0.159,0.596l-0.031,0.12l-0.261,0.56l-0.055,0.112
	l-0.354,0.506l-0.07,0.102l-0.437,0.437l-0.088,0.088l-0.505,0.354l-0.104,0.069l-0.558,0.263l-0.114,0.052l-0.595,0.16l-0.119,0.03
	l-0.615,0.056l-0.125,0.011l-0.614-0.055l-0.122-0.012l-0.599-0.158l-0.119-0.032l-0.558-0.261l-0.114-0.054l-0.504-0.354
	l-0.104-0.07l-0.437-0.437l-0.088-0.088l-0.354-0.507l-0.07-0.101l-0.261-0.561L880.28,920.371z M599.127,922.718l0.437-0.437
	l0.071-0.103l0.354-0.506l0.053-0.112l0.262-0.56l0.031-0.119l0.16-0.597l0.011-0.123l0.055-0.615l-0.011-0.123l-0.055-0.615
	l-0.031-0.118l-0.16-0.598l-0.053-0.111l-0.262-0.561l-0.07-0.102l-0.354-0.506l-0.087-0.087l-0.438-0.438l-0.101-0.071
	l-0.506-0.354l-0.112-0.052l-0.56-0.262l-0.119-0.031l-0.597-0.16l-0.123-0.011l-0.616-0.055l-0.122,0.011l-0.615,0.055l-0.12,0.032
	l-0.597,0.159l-0.111,0.053l-0.56,0.261l-0.103,0.071l-0.506,0.354l-0.088,0.087l-0.437,0.438l-0.07,0.102l-0.354,0.506
	l-0.052,0.112l-0.262,0.56l-0.032,0.119l-0.159,0.597l-0.011,0.123l-0.055,0.615l0.012,0.123l0.054,0.615l0.032,0.119l0.159,0.597
	l0.053,0.112l0.261,0.56l0.07,0.103l0.354,0.506l0.088,0.087l0.437,0.437l0.103,0.071l0.506,0.354l0.11,0.052l0.561,0.261
	l0.12,0.032l0.597,0.16l0.123,0.011l0.614,0.054l0.124-0.011l0.615-0.054l0.118-0.032l0.598-0.16l0.111-0.052l0.561-0.261
	l0.101-0.071l0.506-0.354L599.127,922.718z M880.087,558.888l0.158-0.599l0.034-0.119l0.261-0.558l0.052-0.114l0.354-0.504
	l0.07-0.104l0.437-0.437l0.089-0.088l0.505-0.354l0.102-0.07l0.562-0.261l0.109-0.051l0.6-0.162l0.118-0.031l0.615-0.054
	l0.121-0.012l0.615,0.055l0.125,0.011l0.596,0.159l0.118,0.034l0.562,0.261l0.11,0.051l0.508,0.354l0.101,0.07l0.437,0.437
	l0.088,0.088l0.354,0.508l0.07,0.1l0.262,0.562l0.054,0.11l0.159,0.599l0.031,0.119l0.054,0.615l0.011,0.121l-0.054,0.615
	l-0.011,0.125l-0.159,0.596l-0.031,0.118l-0.261,0.562l-0.055,0.11l-0.354,0.508l-0.07,0.1l-0.437,0.439l-0.088,0.085l-0.505,0.354
	l-0.104,0.07l-0.558,0.261l-0.114,0.055l-0.595,0.159l-0.119,0.033l-0.615,0.052l-0.125,0.011l-0.614-0.054l-0.122-0.009
	l-0.599-0.162l-0.119-0.03l-0.558-0.261l-0.114-0.055l-0.504-0.354l-0.104-0.07l-0.437-0.438l-0.088-0.088l-0.354-0.505l-0.07-0.103
	l-0.261-0.559l-0.051-0.113l-0.162-0.596l-0.031-0.119l-0.054-0.614l-0.012-0.125l0.055-0.614L880.087,558.888z M144.083,1015.178
	l-0.639-0.17l-0.128-0.034l-0.596-0.277l-0.121-0.057l-0.539-0.378l-0.106-0.076l-0.466-0.466l-0.094-0.093l-0.377-0.54
	l-0.076-0.106l-0.277-0.599l-0.058-0.119l-0.17-0.636l-0.034-0.128l-0.057-0.656l-0.014-0.131l0.059-0.656l0.012-0.132l0.17-0.636
	l0.034-0.128l0.278-0.598l0.057-0.119l0.377-0.539l0.076-0.108l0.465-0.466l0.095-0.093l0.538-0.378l0.107-0.075l0.598-0.278
	l0.119-0.057l0.639-0.17l0.128-0.034l0.653-0.058l0.132-0.013l0.656,0.059l0.131,0.012l0.639,0.171l0.127,0.033l0.596,0.277
	l0.119,0.058l0.541,0.378l0.108,0.075l0.465,0.466l0.093,0.093l0.377,0.54l0.077,0.107l0.276,0.598l0.058,0.119l0.171,0.637
	l0.033,0.127l0.057,0.656l0.012,0.132l-0.057,0.656l-0.012,0.131l-0.17,0.637l-0.034,0.128l-0.277,0.598l-0.057,0.119l-0.377,0.539
	l-0.077,0.107l-0.465,0.466l-0.093,0.094l-0.539,0.378l-0.11,0.076l-0.596,0.277l-0.119,0.057l-0.638,0.17l-0.128,0.033
	l-0.654,0.059l-0.133,0.012l-0.655-0.058L144.083,1015.178z M600.334,747.97l0.159-0.599l0.011-0.121l0.055-0.615l-0.011-0.122
	l-0.055-0.614l-0.031-0.122l-0.16-0.596l-0.052-0.112l-0.263-0.56l-0.069-0.103l-0.354-0.504l-0.087-0.088l-0.438-0.438
	l-0.101-0.071l-0.506-0.354l-0.112-0.051l-0.56-0.265l-0.119-0.031l-0.597-0.158l-0.123-0.012l-0.616-0.054l-0.122,0.011
	l-0.615,0.055l-0.12,0.03l-0.597,0.159l-0.111,0.055l-0.56,0.261l-0.103,0.071l-0.506,0.354l-0.088,0.088l-0.437,0.438l-0.07,0.102
	l-0.354,0.505l-0.052,0.11l-0.262,0.562l-0.032,0.119l-0.159,0.599l-0.011,0.121l-0.055,0.615l0.012,0.122l0.054,0.614l0.032,0.122
	l0.159,0.596l0.053,0.113l0.261,0.559l0.07,0.103l0.354,0.505l0.088,0.088l0.437,0.437l0.103,0.07l0.506,0.354l0.111,0.052
	l0.56,0.263l0.12,0.031l0.597,0.159l0.123,0.012l0.614,0.054l0.124-0.012l0.615-0.054l0.118-0.031l0.598-0.159l0.111-0.054
	l0.561-0.261l0.101-0.07l0.506-0.354l0.089-0.088l0.437-0.437l0.071-0.104l0.354-0.504l0.053-0.109l0.262-0.562L600.334,747.97z
	 M1438.646,504.93l-0.638-0.17l-0.131-0.011l-0.654-0.06l-0.133,0.014l-0.655,0.057l-0.128,0.034l-0.639,0.17l-0.118,0.058
	l-0.596,0.277l-0.11,0.076l-0.538,0.377l-0.094,0.094l-0.466,0.465l-0.075,0.107l-0.377,0.539l-0.059,0.121l-0.276,0.596
	l-0.033,0.128l-0.171,0.639l-0.011,0.13l-0.058,0.654l0.011,0.134l0.058,0.654l0.034,0.127l0.17,0.639l0.057,0.119l0.278,0.596
	l0.076,0.11l0.377,0.538l0.094,0.094l0.465,0.465l0.107,0.077l0.542,0.377l0.119,0.057l0.595,0.277l0.128,0.034l0.638,0.17
	l0.13,0.012l0.658,0.057l0.131-0.011l0.654-0.058l0.127-0.033l0.639-0.171l0.119-0.058l0.598-0.276l0.107-0.076l0.539-0.378
	l0.094-0.093l0.465-0.465l0.076-0.108l0.377-0.541l0.058-0.119l0.276-0.596l0.035-0.127l0.17-0.639l0.012-0.131l0.06-0.657
	l-0.014-0.131l-0.058-0.653l-0.035-0.128l-0.17-0.639l-0.057-0.119l-0.277-0.598l-0.074-0.107l-0.379-0.538l-0.094-0.095
	l-0.465-0.465l-0.107-0.076l-0.539-0.377l-0.121-0.057l-0.596-0.278L1438.646,504.93z M555.813,1097.908l-0.127,0.035l-0.637,0.17
	l-0.119,0.056l-0.598,0.278l-0.107,0.076l-0.539,0.377l-0.094,0.094l-0.467,0.466l-0.074,0.108l-0.378,0.539l-0.057,0.118
	l-0.277,0.599l-0.034,0.127l-0.171,0.637l-0.013,0.131l-0.057,0.656l0.011,0.132l0.059,0.656l0.033,0.127l0.171,0.637l0.057,0.119
	l0.278,0.597l0.074,0.108l0.378,0.54l0.095,0.093l0.466,0.466l0.106,0.076l0.54,0.377l0.119,0.057l0.598,0.277l0.128,0.035
	l0.636,0.17l0.132,0.012l0.656,0.058l0.131-0.011l0.656-0.059l0.128-0.034l0.636-0.171l0.12-0.055l0.597-0.279l0.108-0.075
	l0.539-0.378l0.094-0.093l0.466-0.466l0.075-0.108l0.378-0.54l0.056-0.119l0.278-0.597l0.034-0.128l0.171-0.637l0.011-0.132
	l0.059-0.655l-0.013-0.131l-0.057-0.656l-0.034-0.127l-0.171-0.637l-0.056-0.119l-0.278-0.599l-0.075-0.106l-0.378-0.54
	l-0.094-0.094l-0.466-0.467l-0.107-0.075l-0.54-0.378l-0.119-0.055l-0.598-0.279l-0.127-0.034l-0.638-0.171l-0.131-0.011
	l-0.655-0.059l-0.132,0.013L555.813,1097.908z M1508.918,571.938v470.077h86.457h432.283V948V477.922h-86.456h-432.284V571.938z
	 M1300.572,824.457l0.093,1.025l0.017,0.205l0.267,0.993l0.055,0.199l0.434,0.933l0.088,0.188l0.589,0.844l0.119,0.168l0.729,0.729
	l0.145,0.146l0.846,0.59l0.167,0.118l0.934,0.437l0.188,0.087l0.994,0.267l0.199,0.053l1.024,0.091l0.204,0.019l1.026-0.091
	l0.204-0.019l0.995-0.267l0.197-0.053l0.934-0.436l0.188-0.088l0.842-0.59l0.171-0.118l0.729-0.729l0.146-0.146l0.59-0.843
	l0.119-0.169l0.436-0.933l0.086-0.188l0.267-0.994l0.055-0.199l0.09-1.024l0.019-0.205v-106.3v-21.261l-0.092-1.024l-0.017-0.204
	l-0.267-0.995l-0.055-0.198l-0.434-0.933l-0.088-0.188l-0.59-0.842l-0.119-0.17l-0.729-0.729l-0.145-0.146l-0.845-0.59l-0.167-0.119
	l-0.935-0.437l-0.187-0.085l-0.995-0.268l-0.198-0.054l-1.026-0.091l-0.203-0.018l-1.026,0.091l-0.203,0.018l-0.996,0.267
	l-0.196,0.055l-0.935,0.434l-0.187,0.088l-0.843,0.59l-0.171,0.119l-0.729,0.729l-0.146,0.145l-0.589,0.845l-0.119,0.167
	l-0.437,0.934l-0.085,0.188l-0.268,0.994l-0.054,0.199l-0.091,1.025l-0.018,0.203v106.301L1300.572,824.457L1300.572,824.457z
	 M1218.723,824.457l0.09,1.025l0.018,0.205l0.268,0.993l0.054,0.199l0.434,0.933l0.089,0.188l0.59,0.844l0.119,0.168l0.729,0.729
	l0.145,0.146l0.846,0.59l0.167,0.118l0.933,0.437l0.188,0.087l0.996,0.267l0.196,0.053l1.027,0.091l0.203,0.019l1.025-0.091
	l0.204-0.019l0.995-0.267l0.198-0.053l0.933-0.436l0.188-0.088l0.843-0.59l0.17-0.118l0.729-0.729l0.145-0.146l0.59-0.843
	l0.118-0.169l0.438-0.933l0.085-0.188l0.267-0.994l0.054-0.199l0.091-1.024l0.018-0.205v-106.3v-21.261l-0.091-1.024l-0.018-0.204
	l-0.267-0.995l-0.054-0.198l-0.436-0.933l-0.088-0.188l-0.589-0.842l-0.119-0.17l-0.729-0.729l-0.145-0.146l-0.845-0.59
	l-0.168-0.119l-0.933-0.437l-0.188-0.085l-0.994-0.268l-0.199-0.054l-1.024-0.091l-0.205-0.018l-1.025,0.091l-0.205,0.018
	l-0.994,0.267l-0.198,0.055l-0.933,0.434l-0.188,0.088l-0.843,0.59l-0.17,0.119l-0.729,0.729l-0.146,0.145l-0.59,0.845l-0.119,0.167
	l-0.437,0.934l-0.085,0.188l-0.267,0.994l-0.055,0.199l-0.091,1.025l-0.017,0.203v106.301V824.457L1218.723,824.457z
	 M1044.036,377.291v61.654H618.841h-85.04V130.678V69.023h425.197h85.039L1044.036,377.291L1044.036,377.291z M552.169,92.738
	l-0.034-0.127l-0.059-0.655l-0.011-0.133l0.058-0.655l0.012-0.13l0.171-0.638l0.034-0.128l0.277-0.596l0.057-0.122l0.378-0.538
	l0.075-0.107l0.466-0.465l0.094-0.094l0.539-0.38l0.108-0.074l0.597-0.277l0.119-0.057l0.637-0.17l0.127-0.034l0.657-0.057
	l0.131-0.015l0.656,0.06l0.131,0.012l0.637,0.17l0.127,0.034l0.599,0.277l0.119,0.057l0.54,0.377l0.106,0.077l0.466,0.465
	l0.094,0.094l0.379,0.538l0.074,0.107l0.278,0.599l0.056,0.119l0.172,0.638l0.033,0.128l0.058,0.654l0.012,0.131l-0.058,0.657
	l-0.012,0.131l-0.171,0.638l-0.034,0.127l-0.277,0.596l-0.057,0.119l-0.378,0.541l-0.074,0.108l-0.467,0.465l-0.094,0.093
	l-0.539,0.377l-0.107,0.077l-0.598,0.277l-0.12,0.057l-0.636,0.17l-0.128,0.034l-0.656,0.057l-0.131,0.012l-0.656-0.057
	l-0.132-0.012l-0.636-0.17l-0.128-0.034l-0.597-0.277l-0.119-0.057l-0.54-0.377l-0.107-0.077l-0.466-0.465l-0.094-0.093
	l-0.378-0.539l-0.075-0.11l-0.278-0.596l-0.056-0.119L552.169,92.738z M1022.151,1431.128l-0.128,0.034l-0.655,0.057l-0.13,0.015
	l-0.657-0.061l-0.131-0.011l-0.638-0.17l-0.128-0.035l-0.595-0.277l-0.119-0.057l-0.542-0.377l-0.107-0.076l-0.465-0.465
	l-0.094-0.094l-0.377-0.539l-0.076-0.107l-0.278-0.598l-0.057-0.119l-0.17-0.639l-0.034-0.127l-0.057-0.654l-0.012-0.131
	l0.058-0.658l0.011-0.13l0.17-0.638l0.034-0.129l0.278-0.595l0.057-0.119l0.377-0.541l0.076-0.107l0.465-0.465l0.094-0.095
	l0.539-0.377l0.11-0.076l0.595-0.277l0.119-0.057l0.638-0.171l0.128-0.034l0.655-0.057l0.133-0.011l0.655,0.057l0.13,0.011
	l0.638,0.172l0.129,0.032l0.595,0.277l0.122,0.058l0.539,0.377l0.106,0.076l0.465,0.465l0.095,0.095l0.38,0.538l0.073,0.11
	l0.277,0.596l0.057,0.118l0.171,0.639l0.034,0.128l0.057,0.654l0.014,0.134l-0.06,0.653l-0.011,0.132l-0.171,0.638l-0.034,0.128
	l-0.277,0.595l-0.057,0.122l-0.377,0.539l-0.076,0.107l-0.465,0.465l-0.095,0.094l-0.539,0.377l-0.106,0.076l-0.599,0.276
	l-0.118,0.058L1022.151,1431.128z M1020.449,1015.178l-0.638-0.17l-0.128-0.034l-0.595-0.277l-0.119-0.057l-0.542-0.378
	l-0.107-0.076l-0.465-0.466l-0.094-0.093l-0.377-0.54l-0.076-0.106l-0.278-0.599l-0.057-0.119l-0.17-0.636l-0.034-0.128
	l-0.057-0.656l-0.012-0.131l0.058-0.656l0.011-0.132l0.17-0.636l0.034-0.128l0.278-0.598l0.057-0.119l0.377-0.539l0.076-0.108
	l0.465-0.466l0.094-0.093l0.539-0.378l0.11-0.075l0.595-0.278l0.119-0.057l0.638-0.17l0.128-0.034l0.655-0.058l0.133-0.013
	l0.655,0.059l0.13,0.012l0.638,0.171l0.129,0.033l0.595,0.277l0.122,0.058l0.539,0.378l0.106,0.075l0.465,0.466l0.095,0.093
	l0.38,0.54l0.073,0.107l0.277,0.598l0.057,0.119l0.171,0.637l0.034,0.127l0.057,0.656l0.014,0.132l-0.06,0.656l-0.011,0.131
	l-0.171,0.637l-0.034,0.128l-0.277,0.598l-0.057,0.119l-0.377,0.539l-0.076,0.107l-0.465,0.466l-0.095,0.094l-0.539,0.378
	l-0.106,0.076l-0.599,0.277l-0.118,0.057l-0.639,0.17l-0.128,0.033l-0.655,0.059l-0.13,0.012l-0.657-0.058L1020.449,1015.178z
	 M2009.323,508.439l-0.032-0.129l-0.171-0.638l-0.057-0.119l-0.278-0.598l-0.076-0.108l-0.377-0.538l-0.094-0.094l-0.465-0.465
	l-0.107-0.076l-0.538-0.377l-0.122-0.057l-0.596-0.278l-0.127-0.034l-0.639-0.17l-0.13-0.011l-0.655-0.06l-0.134,0.014l-0.654,0.057
	l-0.128,0.034l-0.638,0.17l-0.119,0.058l-0.596,0.277l-0.109,0.076l-0.539,0.377l-0.094,0.094l-0.465,0.466l-0.076,0.106
	l-0.377,0.539l-0.057,0.121l-0.277,0.596l-0.035,0.128l-0.17,0.639l-0.012,0.13l-0.058,0.654l0.013,0.134l0.057,0.654l0.034,0.127
	l0.171,0.639l0.058,0.119l0.276,0.596l0.076,0.109l0.377,0.539l0.094,0.094l0.465,0.465l0.107,0.077l0.541,0.377l0.119,0.057
	l0.596,0.277l0.128,0.034l0.639,0.17l0.131,0.012l0.656,0.057l0.131-0.011l0.654-0.058l0.128-0.033l0.638-0.171l0.119-0.058
	l0.599-0.276l0.108-0.076l0.537-0.378l0.094-0.093l0.465-0.466l0.077-0.107l0.377-0.541l0.057-0.119l0.278-0.596l0.032-0.127
	l0.171-0.639l0.012-0.131l0.06-0.656l-0.015-0.132L2009.323,508.439z M462.935,510.52l0.101,0.01l0.498,0.043l0.098,0.024
	l0.483,0.124l0.091,0.043l0.456,0.204l0.083,0.058l0.415,0.279l-0.051-0.121l-0.249-0.609l-0.027-0.127l-0.141-0.642l-0.006-0.134
	l-0.026-0.654l0.019-0.131l0.087-0.65l0.04-0.125l0.198-0.626l0.062-0.116l0.304-0.584l0.08-0.105l0.4-0.519l0.097-0.091
	l0.485-0.442l0.109-0.07l0.556-0.354l0.121-0.048l0.606-0.253l0.128-0.028l0.643-0.146l0.131-0.006l0.656-0.027l0.131,0.018
	l0.65,0.085l0.126,0.039l0.627,0.196l0.117,0.06l0.583,0.303l0.104,0.08l0.521,0.396l0.089,0.097l0.446,0.484l0.071,0.109
	l0.354,0.554l0.052,0.119l0.254,0.605l0.028,0.128l0.146,0.642l0.007,0.133l0.032,0.654l-0.018,0.131l-0.081,0.651l-0.038,0.128
	l-0.193,0.626l-0.062,0.116l-0.3,0.587l-0.079,0.104l-0.396,0.523l-0.096,0.088l-0.481,0.448l-0.11,0.071l-0.551,0.355l-0.121,0.055
	l-0.604,0.256l-0.129,0.031l-0.641,0.146l-0.131,0.005l-0.656,0.037l-0.131-0.017l-0.651-0.08l-0.126-0.039l-0.63-0.19l-0.116-0.06
	l-0.586-0.297l-0.104-0.08l-0.526-0.395l0.146,0.395l0.028,0.077l0.018,0.081l0.088,0.408l0.007,0.082l0.029,0.417v80.906v404.526
	h-53.86h-269.29V919.65V520.441l0.014-0.165l0.071-0.819l0.042-0.158l0.216-0.797l0.066-0.15l0.351-0.744l0.093-0.137l0.475-0.675
	l0.115-0.116l0.581-0.581l0.136-0.094l0.676-0.474l0.149-0.07l0.746-0.346l0.158-0.043l0.797-0.217l0.164-0.014l0.819-0.07h40.867
	h204.328v-4.726v-0.944h54.922H460.1v1.183v0.234h0.473L462.935,510.52L462.935,510.52z M558.025,504.93l-0.637-0.17l-0.131-0.011
	l-0.656-0.06l-0.131,0.014l-0.657,0.057l-0.127,0.034l-0.637,0.17l-0.119,0.058l-0.598,0.277l-0.107,0.076l-0.539,0.377
	l-0.094,0.094l-0.466,0.465l-0.075,0.107l-0.378,0.539l-0.057,0.121l-0.277,0.596l-0.034,0.128l-0.171,0.639l-0.013,0.13
	l-0.057,0.654l0.011,0.134l0.059,0.654l0.033,0.127l0.172,0.639l0.056,0.119l0.278,0.596l0.074,0.11l0.378,0.538l0.095,0.094
	l0.466,0.465l0.107,0.077l0.539,0.377l0.119,0.057l0.598,0.277l0.128,0.034l0.636,0.17l0.132,0.012l0.656,0.057l0.131-0.011
	l0.656-0.058l0.128-0.033l0.636-0.171l0.12-0.058l0.597-0.276l0.108-0.076l0.539-0.378l0.094-0.093l0.466-0.465l0.075-0.108
	l0.378-0.541l0.056-0.119l0.278-0.596l0.034-0.127l0.171-0.639l0.011-0.131l0.059-0.657l-0.013-0.131l-0.057-0.653l-0.034-0.128
	l-0.171-0.639l-0.056-0.119l-0.278-0.598l-0.075-0.107l-0.378-0.538l-0.094-0.095l-0.466-0.465l-0.107-0.076l-0.54-0.377
	l-0.119-0.057l-0.598-0.278L558.025,504.93z M880.087,616.289l0.158-0.599l0.034-0.118l0.261-0.56l0.052-0.112l0.354-0.506
	l0.07-0.103l0.437-0.437l0.089-0.089l0.505-0.354l0.102-0.071l0.562-0.261l0.109-0.051l0.6-0.162l0.118-0.031l0.615-0.054
	l0.121-0.012l0.615,0.055l0.125,0.011l0.596,0.159l0.118,0.034l0.562,0.261l0.11,0.051l0.508,0.354l0.101,0.069l0.437,0.438
	l0.088,0.088l0.354,0.508l0.07,0.101l0.262,0.561l0.054,0.111l0.159,0.598l0.031,0.119l0.054,0.615l0.011,0.122l-0.054,0.613
	l-0.011,0.125l-0.159,0.597l-0.031,0.119l-0.261,0.561l-0.055,0.111l-0.354,0.507l-0.07,0.1l-0.437,0.439l-0.088,0.085l-0.505,0.354
	l-0.104,0.07l-0.558,0.261l-0.114,0.055l-0.595,0.158l-0.119,0.034l-0.615,0.052l-0.125,0.012l-0.614-0.055l-0.122-0.009
	l-0.599-0.162l-0.119-0.03l-0.558-0.262l-0.114-0.054l-0.504-0.354l-0.104-0.07l-0.437-0.438l-0.088-0.088l-0.354-0.505l-0.07-0.102
	l-0.261-0.56l-0.051-0.112l-0.162-0.597l-0.031-0.119l-0.054-0.614l-0.012-0.124l0.055-0.615L880.087,616.289z M1460.021,948v94.016
	h-308.269H1090.1V571.938v-94.017h308.268h61.653V948L1460.021,948z M600.334,852.284l0.159-0.597l0.011-0.123l0.055-0.615
	l-0.011-0.123l-0.055-0.615l-0.031-0.119l-0.16-0.597l-0.052-0.111l-0.263-0.561l-0.069-0.102l-0.354-0.507l-0.087-0.087
	l-0.438-0.437l-0.101-0.071l-0.506-0.354l-0.112-0.053l-0.56-0.261l-0.119-0.032l-0.597-0.16l-0.123-0.011l-0.616-0.054
	l-0.122,0.011l-0.615,0.054l-0.12,0.032l-0.597,0.16l-0.111,0.052l-0.56,0.262l-0.103,0.07l-0.506,0.354l-0.088,0.087l-0.437,0.437
	l-0.07,0.103l-0.354,0.506l-0.052,0.111l-0.262,0.561l-0.032,0.119l-0.159,0.597l-0.011,0.123l-0.055,0.615l0.012,0.123l0.054,0.614
	l0.032,0.12l0.159,0.597l0.053,0.111l0.261,0.561l0.07,0.102l0.354,0.506l0.088,0.087l0.437,0.438l0.103,0.07l0.506,0.354
	l0.111,0.053l0.56,0.262l0.12,0.03l0.597,0.16l0.123,0.011l0.614,0.055l0.124-0.012l0.615-0.054l0.118-0.032l0.598-0.158
	l0.111-0.054l0.561-0.261l0.101-0.07l0.506-0.354l0.089-0.088l0.437-0.438l0.071-0.102l0.354-0.506l0.053-0.111l0.262-0.561
	L600.334,852.284z M473.485,1012.136l0.171-0.637l0.013-0.131l0.057-0.656l-0.011-0.132l-0.059-0.656l-0.034-0.127l-0.171-0.637
	l-0.056-0.119l-0.278-0.598l-0.075-0.107l-0.378-0.54l-0.093-0.093l-0.466-0.466l-0.108-0.075l-0.54-0.378l-0.118-0.058
	l-0.598-0.277l-0.127-0.033l-0.637-0.171l-0.132-0.013l-0.656-0.058l-0.131,0.012l-0.656,0.059l-0.128,0.034l-0.636,0.17
	l-0.119,0.057l-0.598,0.278l-0.108,0.074l-0.539,0.378l-0.093,0.094l-0.466,0.466l-0.076,0.108l-0.378,0.538l-0.057,0.12
	l-0.277,0.598l-0.034,0.128l-0.171,0.636l-0.011,0.132l-0.059,0.656l0.012,0.131l0.058,0.656l0.035,0.128l0.17,0.636l0.056,0.119
	l0.278,0.598l0.075,0.107l0.379,0.54l0.093,0.093l0.466,0.466l0.107,0.076l0.54,0.378l0.119,0.056l0.598,0.278l0.127,0.034
	l0.637,0.17l0.131,0.012l0.656,0.059l0.132-0.013l0.656-0.058l0.127-0.034l0.637-0.17l0.119-0.056l0.598-0.278l0.107-0.076
	l0.54-0.378l0.093-0.093l0.467-0.466l0.074-0.108l0.378-0.539l0.057-0.119l0.277-0.598L473.485,1012.136z M491.99,477.922h-63.07
	H113.565v94.018v470.076h63.07H491.99V948V477.922z M600.334,618.427l0.159-0.599l0.011-0.122l0.055-0.615l-0.011-0.121
	l-0.055-0.614l-0.031-0.122l-0.16-0.597l-0.052-0.112l-0.263-0.56l-0.069-0.102l-0.354-0.505l-0.087-0.089l-0.438-0.437l-0.101-0.07
	l-0.506-0.354l-0.112-0.051l-0.56-0.265l-0.119-0.031l-0.597-0.158l-0.123-0.012l-0.616-0.055l-0.122,0.012l-0.615,0.055
	l-0.12,0.031l-0.597,0.158l-0.111,0.055l-0.56,0.261l-0.103,0.07l-0.506,0.354l-0.088,0.088l-0.437,0.438l-0.07,0.103l-0.354,0.504
	l-0.052,0.111l-0.262,0.561l-0.032,0.119l-0.159,0.6l-0.011,0.122l-0.055,0.613l0.012,0.122l0.054,0.615l0.032,0.122l0.159,0.595
	l0.053,0.114l0.261,0.558l0.07,0.104l0.354,0.505l0.088,0.088l0.437,0.438l0.103,0.069l0.506,0.354l0.111,0.051l0.56,0.264
	l0.12,0.031l0.597,0.159l0.123,0.011l0.614,0.054l0.124-0.011l0.615-0.054l0.118-0.031l0.598-0.159l0.111-0.054l0.561-0.261
	l0.101-0.071l0.506-0.354l0.089-0.088l0.437-0.438l0.071-0.104l0.354-0.505l0.053-0.109l0.262-0.562L600.334,618.427z
	 M1112.114,1015.178l-0.638-0.17l-0.128-0.034l-0.595-0.277l-0.122-0.057l-0.539-0.378l-0.107-0.076l-0.465-0.466l-0.094-0.093
	l-0.377-0.54l-0.076-0.106l-0.278-0.599l-0.057-0.119l-0.17-0.636l-0.034-0.128l-0.057-0.656l-0.015-0.131l0.061-0.656l0.011-0.132
	l0.17-0.636l0.034-0.128l0.278-0.598l0.057-0.119l0.377-0.539l0.076-0.108l0.465-0.466l0.094-0.093l0.539-0.378l0.107-0.075
	l0.598-0.278l0.119-0.057l0.638-0.17l0.128-0.034l0.654-0.058l0.131-0.013l0.657,0.059l0.131,0.012l0.638,0.171l0.129,0.033
	l0.595,0.277l0.119,0.058l0.541,0.378l0.107,0.075l0.465,0.466l0.095,0.093l0.377,0.54l0.076,0.107l0.277,0.598l0.057,0.119
	l0.171,0.637l0.034,0.127l0.057,0.656l0.011,0.132l-0.057,0.656l-0.011,0.131l-0.172,0.637l-0.032,0.128l-0.278,0.598l-0.057,0.119
	l-0.377,0.539l-0.076,0.107l-0.465,0.466l-0.095,0.094l-0.538,0.378l-0.11,0.076l-0.596,0.277l-0.118,0.057l-0.639,0.17
	l-0.128,0.033l-0.654,0.059l-0.134,0.012l-0.654-0.058L1112.114,1015.178z M1044.036,1079.575v308.268v61.653H618.841h-85.04
	v-308.268v-61.653h425.197H1044.036L1044.036,1079.575z M1025.702,415.358l-0.034-0.128l-0.17-0.638l-0.057-0.119l-0.278-0.596
	l-0.072-0.11l-0.38-0.538l-0.095-0.094l-0.465-0.465l-0.106-0.077l-0.539-0.377l-0.122-0.057l-0.596-0.277l-0.128-0.034l-0.638-0.17
	l-0.13-0.012l-0.655-0.057l-0.133,0.012l-0.655,0.057l-0.128,0.034l-0.638,0.17l-0.119,0.057l-0.595,0.277l-0.11,0.077l-0.539,0.377
	l-0.094,0.094l-0.465,0.465l-0.076,0.107l-0.377,0.541l-0.058,0.119l-0.277,0.596l-0.034,0.128l-0.17,0.638l-0.011,0.13
	l-0.058,0.658l0.012,0.13l0.057,0.655l0.034,0.127l0.17,0.638l0.057,0.119l0.278,0.599l0.076,0.107l0.377,0.539l0.094,0.093
	l0.465,0.465l0.107,0.077l0.542,0.377l0.119,0.057l0.595,0.277l0.128,0.034l0.638,0.17l0.131,0.012l0.657,0.06l0.13-0.015
	l0.655-0.057l0.128-0.034l0.638-0.17l0.119-0.057l0.599-0.277l0.106-0.077l0.539-0.377l0.094-0.093l0.465-0.465l0.076-0.108
	l0.377-0.538l0.058-0.122l0.277-0.596l0.034-0.127l0.17-0.638l0.011-0.131l0.061-0.654l-0.014-0.134L1025.702,415.358z
	 M1441.518,1012.136l0.17-0.637l0.011-0.131l0.061-0.656l-0.015-0.132l-0.057-0.656l-0.035-0.127l-0.17-0.637l-0.057-0.119
	l-0.277-0.598l-0.074-0.107l-0.379-0.54l-0.094-0.093l-0.465-0.466l-0.107-0.075l-0.539-0.378l-0.122-0.058l-0.595-0.277
	l-0.128-0.033l-0.638-0.171l-0.131-0.013l-0.654-0.058l-0.133,0.012l-0.655,0.059l-0.128,0.034l-0.639,0.17l-0.118,0.057
	l-0.596,0.278l-0.11,0.074l-0.538,0.378l-0.094,0.094l-0.466,0.466l-0.075,0.108l-0.377,0.538l-0.059,0.12l-0.276,0.598
	l-0.033,0.128l-0.171,0.636l-0.011,0.132l-0.058,0.656l0.011,0.131l0.058,0.656l0.034,0.128l0.17,0.636l0.057,0.119l0.278,0.598
	l0.076,0.107l0.377,0.54l0.094,0.093l0.465,0.466l0.107,0.076l0.542,0.378l0.119,0.056l0.595,0.278l0.128,0.034l0.638,0.17
	l0.13,0.012l0.658,0.059l0.131-0.013l0.654-0.058l0.127-0.034l0.639-0.17l0.119-0.056l0.598-0.278l0.107-0.076l0.539-0.378
	l0.094-0.093l0.465-0.466l0.076-0.108l0.377-0.539l0.058-0.119l0.276-0.598L1441.518,1012.136z M1246.006,824.457l0.091,1.025
	l0.017,0.205l0.268,0.993l0.054,0.199l0.434,0.933l0.088,0.188l0.59,0.844l0.119,0.168l0.729,0.729l0.145,0.146l0.846,0.59
	l0.166,0.118l0.935,0.437l0.187,0.087l0.995,0.267l0.198,0.053l1.026,0.091l0.202,0.019l1.027-0.091l0.203-0.019l0.995-0.267
	l0.198-0.053l0.934-0.436l0.188-0.088l0.842-0.59l0.17-0.118l0.729-0.729l0.146-0.146l0.59-0.843l0.119-0.169l0.437-0.933
	l0.085-0.188l0.268-0.994l0.054-0.199l0.091-1.024l0.019-0.205v-106.3v-21.261l-0.093-1.024l-0.017-0.204l-0.268-0.995l-0.054-0.198
	l-0.434-0.933l-0.088-0.188l-0.59-0.842l-0.119-0.17l-0.729-0.729l-0.145-0.146l-0.846-0.59l-0.166-0.119l-0.934-0.437l-0.188-0.085
	l-0.994-0.268l-0.199-0.054l-1.025-0.091l-0.205-0.018l-1.024,0.091l-0.204,0.018l-0.995,0.267l-0.198,0.055l-0.933,0.434
	l-0.188,0.088l-0.842,0.59l-0.17,0.119l-0.729,0.729l-0.146,0.145l-0.59,0.845l-0.119,0.167l-0.436,0.934l-0.087,0.188l-0.266,0.994
	l-0.055,0.199l-0.09,1.025l-0.019,0.203v106.301L1246.006,824.457L1246.006,824.457z M1025.702,1101.588l-0.034-0.127l-0.17-0.637
	l-0.057-0.119l-0.278-0.598l-0.072-0.107l-0.38-0.54l-0.095-0.093l-0.465-0.467l-0.106-0.075l-0.539-0.378l-0.122-0.056
	l-0.596-0.278l-0.128-0.034l-0.638-0.171l-0.13-0.012l-0.655-0.058l-0.133,0.012l-0.655,0.058l-0.128,0.034l-0.638,0.171
	l-0.119,0.056l-0.595,0.278l-0.11,0.075l-0.539,0.377l-0.094,0.095l-0.465,0.466l-0.076,0.107l-0.377,0.539l-0.058,0.119
	l-0.277,0.599l-0.034,0.127l-0.17,0.637l-0.011,0.131l-0.058,0.656l0.012,0.132l0.057,0.655l0.034,0.127l0.17,0.638l0.057,0.119
	l0.278,0.597l0.076,0.108l0.377,0.54l0.094,0.093l0.465,0.466l0.107,0.076l0.542,0.377l0.119,0.057l0.595,0.277l0.128,0.035
	l0.638,0.17l0.131,0.012l0.657,0.057l0.13-0.011l0.655-0.058l0.128-0.034l0.638-0.171l0.119-0.055l0.599-0.279l0.106-0.075
	l0.539-0.378l0.094-0.093l0.465-0.466l0.076-0.108l0.377-0.54l0.058-0.119l0.277-0.597l0.034-0.128l0.17-0.637l0.011-0.132
	l0.061-0.656l-0.014-0.131L1025.702,1101.588z M525.297,571.938v-94.017h439.369h87.875V948v94.016h-439.37h-87.874V571.938z
	 M2005.773,1015.144l-0.128,0.034l-0.655,0.059l-0.13,0.012l-0.657-0.058l-0.131-0.013l-0.638-0.17l-0.128-0.034l-0.597-0.277
	l-0.118-0.057l-0.541-0.378l-0.107-0.076l-0.465-0.466l-0.094-0.093l-0.377-0.54l-0.076-0.106l-0.277-0.599l-0.057-0.119
	l-0.171-0.636l-0.034-0.128l-0.058-0.656l-0.012-0.131l0.057-0.656l0.013-0.132l0.17-0.636l0.035-0.128l0.276-0.598l0.058-0.119
	l0.377-0.539l0.076-0.108l0.465-0.466l0.094-0.093l0.539-0.378l0.108-0.075l0.597-0.278l0.119-0.057l0.638-0.17l0.128-0.034
	l0.654-0.058l0.134-0.013l0.655,0.059l0.13,0.012l0.638,0.171l0.127,0.033l0.596,0.277l0.122,0.058l0.538,0.378l0.108,0.075
	l0.465,0.466l0.093,0.093l0.377,0.54l0.077,0.107l0.278,0.598l0.057,0.119l0.17,0.637l0.033,0.127l0.057,0.656l0.016,0.132
	l-0.061,0.656l-0.012,0.131l-0.17,0.637l-0.033,0.128l-0.278,0.598l-0.057,0.119l-0.377,0.539l-0.077,0.107l-0.465,0.466
	l-0.093,0.094l-0.538,0.378l-0.108,0.076l-0.599,0.277l-0.119,0.057L2005.773,1015.144z M1020.449,87.358l-0.128,0.034l-0.638,0.17
	l-0.119,0.057l-0.595,0.277l-0.11,0.074l-0.539,0.38l-0.094,0.094l-0.465,0.465l-0.076,0.107l-0.377,0.538l-0.057,0.122
	l-0.278,0.596l-0.034,0.128l-0.17,0.638l-0.011,0.13l-0.058,0.655l0.012,0.133l0.057,0.655l0.034,0.127l0.17,0.638l0.057,0.119
	l0.278,0.596l0.076,0.11l0.377,0.539l0.094,0.093l0.465,0.465l0.107,0.077l0.542,0.377l0.119,0.057l0.595,0.277l0.128,0.034
	l0.638,0.17l0.131,0.012l0.657,0.057l0.13-0.012l0.655-0.057l0.128-0.034l0.638-0.17l0.119-0.057l0.599-0.277l0.106-0.077
	l0.539-0.377l0.094-0.093l0.466-0.465l0.075-0.108l0.377-0.541l0.058-0.119l0.277-0.596l0.034-0.127l0.17-0.638l0.012-0.131
	l0.06-0.657l-0.014-0.131l-0.058-0.654l-0.034-0.128l-0.17-0.638l-0.057-0.119l-0.278-0.599l-0.072-0.107l-0.38-0.538l-0.095-0.094
	l-0.465-0.465l-0.106-0.077l-0.539-0.377l-0.122-0.057l-0.596-0.277l-0.128-0.034l-0.638-0.17l-0.13-0.012l-0.655-0.06l-0.133,0.015
	L1020.449,87.358z M1025.532,510.65l0.17-0.639l0.012-0.131l0.06-0.657l-0.014-0.131l-0.058-0.653l-0.034-0.129l-0.17-0.638
	l-0.057-0.119l-0.278-0.598l-0.072-0.108l-0.38-0.538l-0.095-0.094l-0.465-0.465l-0.106-0.076l-0.539-0.377l-0.122-0.057
	l-0.596-0.278l-0.128-0.034l-0.638-0.17l-0.13-0.011l-0.655-0.061l-0.133,0.015l-0.655,0.057l-0.128,0.034l-0.638,0.17l-0.119,0.057
	l-0.595,0.278l-0.11,0.076l-0.539,0.377l-0.094,0.094l-0.465,0.465l-0.076,0.107l-0.377,0.539l-0.058,0.121l-0.277,0.596
	l-0.034,0.128l-0.17,0.639l-0.011,0.13l-0.058,0.654l0.012,0.134l0.057,0.654l0.034,0.127l0.17,0.639l0.057,0.119l0.278,0.596
	l0.076,0.109l0.377,0.539l0.094,0.094l0.465,0.465l0.107,0.077l0.542,0.377l0.119,0.057l0.595,0.277l0.128,0.034l0.638,0.17
	l0.131,0.012l0.657,0.057l0.13-0.011l0.655-0.058l0.128-0.033l0.638-0.171l0.119-0.058l0.599-0.276l0.106-0.076l0.539-0.378
	l0.094-0.093l0.465-0.466l0.076-0.107l0.377-0.541l0.058-0.119l0.277-0.596L1025.532,510.65z M880.087,745.974l0.158-0.598
	l0.034-0.119l0.261-0.559l0.052-0.113l0.354-0.505l0.07-0.103l0.437-0.437l0.089-0.088l0.505-0.354l0.102-0.069l0.562-0.263
	l0.109-0.051l0.6-0.161l0.118-0.031l0.615-0.054l0.121-0.012l0.615,0.054l0.125,0.012l0.596,0.158l0.118,0.034l0.562,0.261
	l0.11,0.053l0.508,0.354l0.101,0.071l0.437,0.437l0.088,0.088l0.354,0.509l0.07,0.099l0.262,0.562l0.054,0.11l0.159,0.599
	l0.031,0.118l0.054,0.615l0.011,0.122l-0.054,0.615l-0.011,0.125l-0.159,0.595l-0.031,0.119l-0.261,0.562l-0.055,0.11l-0.354,0.508
	l-0.07,0.1l-0.437,0.438l-0.088,0.085l-0.505,0.354l-0.104,0.07l-0.558,0.262l-0.114,0.054l-0.595,0.158l-0.119,0.033l-0.615,0.052
	l-0.125,0.012l-0.614-0.054l-0.122-0.009l-0.599-0.161l-0.119-0.031l-0.558-0.261l-0.114-0.055l-0.504-0.354l-0.104-0.071
	l-0.437-0.437l-0.088-0.088l-0.354-0.505l-0.07-0.103l-0.261-0.56l-0.051-0.112l-0.162-0.595l-0.031-0.119l-0.054-0.615
	l-0.012-0.125l0.055-0.615L880.087,745.974z"/>
<text transform="matrix(1 0 0 1 861.9958 379.2793)" fill="none" stroke="#FF463F" stroke-miterlimit="10" font-family="'BrushScriptStd'" font-size="63">Cube</text>
<rect x="855.633" y="328.872" fill="none" stroke="#EC1C24" stroke-miterlimit="10" width="143.883" height="71.941"/>
<rect x="834.59" y="308.317" fill="#FFFFFF" width="38.662" height="41.109"/>
<text transform="matrix(1 0 0 1 808.1638 347.4688)" fill="none" stroke="#FF2D00" stroke-miterlimit="10" font-family="'MyriadPro-BoldIt'" font-size="63">XT</text>
<g>
	<g>
		<text transform="matrix(-4.489659e-11 1 -1 -4.489659e-11 1376.051 529.123)"><tspan x="0" y="0" fill="#ED3224" font-family="'Clarxndon-Regular'" font-size="48">8</tspan><tspan x="31.728" y="0" fill="#ED3224" font-family="'Clarxndon-Regular'" font-size="36">bits</tspan><tspan x="102.035" y="0" fill="#ED3224" font-family="'Clarxndon-Regular'" font-size="48">4</tspan><tspan x="133.81" y="0" fill="#ED3224" font-family="'Clarxndon-Regular'" font-size="36">ever</tspan></text>
		
			<text transform="matrix(-4.489659e-11 1 -1 -4.489659e-11 1355.2053 560.8105)" fill="#ED3224" font-family="'Clarxndon-Regular'" font-size="18">Classic Computers</text>
	</g>
	<g>
		<path fill="#ED3224" d="M1367.174,557.499c-0.691,0-1.25-0.561-1.25-1.25v-25.875c0-0.691,0.559-1.25,1.25-1.25l0,0
			c0.689,0,1.25,0.559,1.25,1.25v25.875C1368.424,556.938,1367.864,557.499,1367.174,557.499L1367.174,557.499z"/>
		<path fill="#ED3224" d="M1363.174,554.895c-0.691,0-1.25-0.56-1.25-1.25V527.77c0-0.69,0.559-1.25,1.25-1.25l0,0
			c0.689,0,1.25,0.56,1.25,1.25v25.875C1364.424,554.335,1363.864,554.895,1363.174,554.895L1363.174,554.895z"/>
		<path fill="#ED3224" d="M1359.174,557.499c-0.691,0-1.25-0.561-1.25-1.25v-25.875c0-0.691,0.559-1.25,1.25-1.25l0,0
			c0.689,0,1.25,0.559,1.25,1.25v25.875C1360.424,556.938,1359.864,557.499,1359.174,557.499L1359.174,557.499z"/>
		<path fill="#ED3224" d="M1355.205,554.895c-0.691,0-1.25-0.56-1.25-1.25V527.77c0-0.69,0.559-1.25,1.25-1.25l0,0
			c0.689,0,1.25,0.56,1.25,1.25v25.875C1356.455,554.335,1355.895,554.895,1355.205,554.895L1355.205,554.895z"/>
	</g>
</g>
</svg>
